<svg width="1571" height="340" viewBox="-10 -10 1571 340" fill="none" xmlns="http://www.w3.org/2000/svg">
<defs>
  <linearGradient id="strokeGradient" gradientUnits="userSpaceOnUse" x1="0" y1="160" x2="1552" y2="160">
    <stop offset="0%" stop-color="#2C97FB"/>
    <stop offset="33%" stop-color="#0E53C5"/>
    <stop offset="66%" stop-color="#A517F7"/>
    <stop offset="100%" stop-color="#EF43FE"/>
  </linearGradient>
</defs>

<!-- Stroke layer (behind, not clipped) -->
<g stroke="url(#strokeGradient)" stroke-width="12" fill="none">
  <path d="M217.306 106.117V312.698H164.145V299.641C146.425 313.009 127.927 319.693 108.653 319.693C78.4974 319.693 52.8497 308.967 31.7098 287.516C10.57 266.066 0 239.952 0 209.174C0 178.708 10.57 152.749 31.7098 131.299C52.8497 109.848 78.4974 99.1225 108.653 99.1225C127.927 99.1225 146.425 105.806 164.145 119.174V106.117H217.306ZM110.984 147.154C93.886 147.154 80.0518 152.905 69.4819 164.408C58.9119 175.599 53.6269 190.522 53.6269 209.174C53.6269 227.516 58.7565 242.594 69.0155 254.408C79.5855 265.91 93.1088 271.661 109.585 271.661C126.062 271.661 139.43 265.91 149.689 254.408C159.948 242.594 165.078 227.516 165.078 209.174C165.078 191.143 159.948 176.376 149.689 164.874C139.741 153.06 126.839 147.154 110.984 147.154Z"/>
  <path d="M464.897 106.117L375.829 192.853L470.493 312.698H405.208L339.456 228.294L319.871 247.879V312.698H266.71V1.66138H319.871V179.796L394.949 106.117H464.897Z"/>
  <path d="M684.993 106.117V312.698H631.832V299.641C614.112 313.009 595.615 319.693 576.34 319.693C546.185 319.693 520.537 308.967 499.397 287.516C478.257 266.066 467.687 239.952 467.687 209.174C467.687 178.708 478.257 152.749 499.397 131.299C520.537 109.848 546.185 99.1225 576.34 99.1225C595.615 99.1225 614.112 105.806 631.832 119.174V106.117H684.993ZM578.672 147.154C561.573 147.154 547.739 152.905 537.169 164.408C526.599 175.599 521.314 190.522 521.314 209.174C521.314 227.516 526.444 242.594 536.703 254.408C547.273 265.91 560.796 271.661 577.273 271.661C593.75 271.661 607.118 265.91 617.377 254.408C627.636 242.594 632.765 227.516 632.765 209.174C632.765 191.143 627.636 176.376 617.377 164.874C607.428 153.06 594.527 147.154 578.672 147.154Z"/>
  <path d="M822.511 154.148H790.801V246.014C790.801 253.786 791.422 259.071 792.666 261.869C794.22 264.667 797.018 266.066 801.06 266.066C806.034 266.066 814.272 264.511 825.775 261.402V311.299C813.34 314.718 803.081 316.428 794.998 316.428C776.656 316.428 762.51 310.366 752.562 298.242C742.614 286.117 737.64 268.708 737.64 246.014V154.148H716.189V106.117H737.64V61.8168L790.801 40.8324V106.117H822.511V154.148Z"/>
  <path d="M1002.29 148.086L960.789 168.604C954.883 159.9 949.753 153.993 945.401 150.884C941.048 147.775 935.763 146.221 929.546 146.221C923.017 146.221 917.732 147.775 913.691 150.884C909.96 153.993 908.095 158.034 908.095 163.009C908.095 167.361 909.494 170.781 912.292 173.268C915.401 175.444 922.862 178.708 934.675 183.06L953.328 190.522C970.738 197.361 983.484 205.444 991.567 214.77C999.649 224.097 1003.69 235.444 1003.69 248.812C1003.69 268.708 996.23 285.496 981.307 299.174C966.385 312.853 948.043 319.693 926.282 319.693C887.732 319.693 860.841 298.242 845.608 255.34L888.976 238.086C895.504 251.143 901.411 260.003 906.696 264.667C911.981 269.33 918.665 271.661 926.748 271.661C933.898 271.661 939.649 269.796 944.002 266.066C948.354 262.024 950.53 256.739 950.53 250.211C950.53 245.858 948.82 242.439 945.401 239.952C942.292 237.465 935.297 234.045 924.416 229.692L903.432 221.765C872.655 210.262 857.266 191.143 857.266 164.408C857.266 145.755 864.105 130.211 877.784 117.775C891.774 105.34 909.183 99.1225 930.012 99.1225C946.178 99.1225 960.012 103.009 971.515 110.781C983.017 118.553 993.276 130.988 1002.29 148.086Z"/>
  <path d="M1217.62 312.698H1164.46V301.972C1149.54 313.786 1133.53 319.693 1116.43 319.693C1090.63 319.693 1069.33 310.522 1052.55 292.18C1037.31 276.014 1029.7 250.988 1029.7 217.102V106.117H1082.86V213.838C1082.86 222.231 1083.17 229.382 1083.79 235.288C1084.72 240.884 1086.28 246.791 1088.45 253.009C1090.94 259.226 1094.83 263.889 1100.11 266.998C1105.4 270.107 1112.24 271.661 1120.63 271.661C1130.27 271.661 1138.04 270.107 1143.94 266.998C1150.16 263.579 1154.67 258.76 1157.47 252.542C1160.27 246.014 1162.13 239.641 1163.06 233.423C1164 226.895 1164.46 218.812 1164.46 209.174V106.117H1217.62V312.698Z"/>
  <path d="M1465.14 106.117L1376.07 192.853L1470.74 312.698H1405.45L1339.7 228.294L1320.12 247.879V312.698H1266.96V1.66138H1320.12V179.796L1395.19 106.117H1465.14Z"/>
  <path d="M1491.92 106.117H1545.08V312.698H1491.92V106.117ZM1519.43 3.06035C1528.14 3.06035 1535.75 6.3246 1542.28 12.8531C1548.81 19.3816 1552.07 26.9982 1552.07 35.7028C1552.07 44.7184 1548.81 52.4904 1542.28 59.0189C1535.75 65.2365 1527.98 68.3453 1518.97 68.3453C1509.64 68.3453 1501.71 65.2365 1495.18 59.0189C1488.65 52.4904 1485.39 44.563 1485.39 35.2365C1485.39 26.221 1488.65 18.6044 1495.18 12.3868C1501.71 6.16916 1509.79 3.06035 1519.43 3.06035Z"/>
</g>

<!-- Original gradient fill layer (on top) -->
<mask id="mask0_1_129" style="mask-type:alpha" maskUnits="userSpaceOnUse" x="0" y="1" width="1553" height="319">
  <path d="M217.306 106.117V312.698H164.145V299.641C146.425 313.009 127.927 319.693 108.653 319.693C78.4974 319.693 52.8497 308.967 31.7098 287.516C10.57 266.066 0 239.952 0 209.174C0 178.708 10.57 152.749 31.7098 131.299C52.8497 109.848 78.4974 99.1225 108.653 99.1225C127.927 99.1225 146.425 105.806 164.145 119.174V106.117H217.306ZM110.984 147.154C93.886 147.154 80.0518 152.905 69.4819 164.408C58.9119 175.599 53.6269 190.522 53.6269 209.174C53.6269 227.516 58.7565 242.594 69.0155 254.408C79.5855 265.91 93.1088 271.661 109.585 271.661C126.062 271.661 139.43 265.91 149.689 254.408C159.948 242.594 165.078 227.516 165.078 209.174C165.078 191.143 159.948 176.376 149.689 164.874C139.741 153.06 126.839 147.154 110.984 147.154Z" fill="white"/>
  <path d="M464.897 106.117L375.829 192.853L470.493 312.698H405.208L339.456 228.294L319.871 247.879V312.698H266.71V1.66138H319.871V179.796L394.949 106.117H464.897Z" fill="white"/>
  <path d="M684.993 106.117V312.698H631.832V299.641C614.112 313.009 595.615 319.693 576.34 319.693C546.185 319.693 520.537 308.967 499.397 287.516C478.257 266.066 467.687 239.952 467.687 209.174C467.687 178.708 478.257 152.749 499.397 131.299C520.537 109.848 546.185 99.1225 576.34 99.1225C595.615 99.1225 614.112 105.806 631.832 119.174V106.117H684.993ZM578.672 147.154C561.573 147.154 547.739 152.905 537.169 164.408C526.599 175.599 521.314 190.522 521.314 209.174C521.314 227.516 526.444 242.594 536.703 254.408C547.273 265.91 560.796 271.661 577.273 271.661C593.75 271.661 607.118 265.91 617.377 254.408C627.636 242.594 632.765 227.516 632.765 209.174C632.765 191.143 627.636 176.376 617.377 164.874C607.428 153.06 594.527 147.154 578.672 147.154Z" fill="white"/>
  <path d="M822.511 154.148H790.801V246.014C790.801 253.786 791.422 259.071 792.666 261.869C794.22 264.667 797.018 266.066 801.06 266.066C806.034 266.066 814.272 264.511 825.775 261.402V311.299C813.34 314.718 803.081 316.428 794.998 316.428C776.656 316.428 762.51 310.366 752.562 298.242C742.614 286.117 737.64 268.708 737.64 246.014V154.148H716.189V106.117H737.64V61.8168L790.801 40.8324V106.117H822.511V154.148Z" fill="white"/>
  <path d="M1002.29 148.086L960.789 168.604C954.883 159.9 949.753 153.993 945.401 150.884C941.048 147.775 935.763 146.221 929.546 146.221C923.017 146.221 917.732 147.775 913.691 150.884C909.96 153.993 908.095 158.034 908.095 163.009C908.095 167.361 909.494 170.781 912.292 173.268C915.401 175.444 922.862 178.708 934.675 183.06L953.328 190.522C970.738 197.361 983.484 205.444 991.567 214.77C999.649 224.097 1003.69 235.444 1003.69 248.812C1003.69 268.708 996.23 285.496 981.307 299.174C966.385 312.853 948.043 319.693 926.282 319.693C887.732 319.693 860.841 298.242 845.608 255.34L888.976 238.086C895.504 251.143 901.411 260.003 906.696 264.667C911.981 269.33 918.665 271.661 926.748 271.661C933.898 271.661 939.649 269.796 944.002 266.066C948.354 262.024 950.53 256.739 950.53 250.211C950.53 245.858 948.82 242.439 945.401 239.952C942.292 237.465 935.297 234.045 924.416 229.692L903.432 221.765C872.655 210.262 857.266 191.143 857.266 164.408C857.266 145.755 864.105 130.211 877.784 117.775C891.774 105.34 909.183 99.1225 930.012 99.1225C946.178 99.1225 960.012 103.009 971.515 110.781C983.017 118.553 993.276 130.988 1002.29 148.086Z" fill="white"/>
  <path d="M1217.62 312.698H1164.46V301.972C1149.54 313.786 1133.53 319.693 1116.43 319.693C1090.63 319.693 1069.33 310.522 1052.55 292.18C1037.31 276.014 1029.7 250.988 1029.7 217.102V106.117H1082.86V213.838C1082.86 222.231 1083.17 229.382 1083.79 235.288C1084.72 240.884 1086.28 246.791 1088.45 253.009C1090.94 259.226 1094.83 263.889 1100.11 266.998C1105.4 270.107 1112.24 271.661 1120.63 271.661C1130.27 271.661 1138.04 270.107 1143.94 266.998C1150.16 263.579 1154.67 258.76 1157.47 252.542C1160.27 246.014 1162.13 239.641 1163.06 233.423C1164 226.895 1164.46 218.812 1164.46 209.174V106.117H1217.62V312.698Z" fill="white"/>
  <path d="M1465.14 106.117L1376.07 192.853L1470.74 312.698H1405.45L1339.7 228.294L1320.12 247.879V312.698H1266.96V1.66138H1320.12V179.796L1395.19 106.117H1465.14Z" fill="white"/>
  <path d="M1491.92 106.117H1545.08V312.698H1491.92V106.117ZM1519.43 3.06035C1528.14 3.06035 1535.75 6.3246 1542.28 12.8531C1548.81 19.3816 1552.07 26.9982 1552.07 35.7028C1552.07 44.7184 1548.81 52.4904 1542.28 59.0189C1535.75 65.2365 1527.98 68.3453 1518.97 68.3453C1509.64 68.3453 1501.71 65.2365 1495.18 59.0189C1488.65 52.4904 1485.39 44.563 1485.39 35.2365C1485.39 26.221 1488.65 18.6044 1495.18 12.3868C1501.71 6.16916 1509.79 3.06035 1519.43 3.06035Z" fill="white"/>
</mask>
<g mask="url(#mask0_1_129)">
  <path fill-rule="evenodd" clip-rule="evenodd" d="M1067.37 -322.147C1189.81 -294.206 1274.85 -207.621 1378.69 -137.243C1528.21 -35.9094 1792.91 -7.27292 1797.61 172.766C1802.28 351.804 1531.71 382.596 1395.3 499.322C1278.57 599.212 1217.8 765.223 1067.37 797.635C890.362 835.773 666.44 824.348 558.342 679.654C452.698 538.243 598.33 349.003 600.547 172.766C602.704 1.17251 452.95 -196.5 570.934 -321.583C688.708 -446.444 899.691 -360.414 1067.37 -322.147Z" fill="#0E53C5"/>
  <path fill-rule="evenodd" clip-rule="evenodd" d="M647.549 -167.68C757.515 -133.682 845.314 -74.4157 937.935 -5.73981C1058.96 83.9971 1219.97 140.773 1260.18 286.568C1308.66 462.364 1290.1 675.363 1161.12 803.543C1032.5 931.375 828.301 894.584 647.549 895.41C465.473 896.243 265.602 929.77 129.286 808.263C-11.8005 682.504 -30.275 476.192 -35.4998 286.568C-40.9211 89.8161 -63.4287 -156.396 99.716 -264.892C260.55 -371.851 463.281 -224.65 647.549 -167.68Z" fill="#2C97FB"/>
  <path fill-rule="evenodd" clip-rule="evenodd" d="M345.113 -814.972C517.999 -802.846 634.23 -636.487 724.343 -488.071C793.265 -374.556 770.387 -240.703 774.438 -107.874C778.717 32.4131 843.08 193.045 748.265 296.307C652.493 400.611 486.5 362.226 345.113 359.7C207.687 357.245 48.1136 384.498 -43.9222 282.153C-134.485 181.446 -67.6314 27.4982 -75.3616 -107.874C-84.0082 -259.293 -168.638 -414.997 -91.1712 -545.27C-0.221347 -698.217 167.934 -827.399 345.113 -814.972Z" fill="#A517F7"/>
  <path fill-rule="evenodd" clip-rule="evenodd" d="M-350.246 -471.37C-227.81 -443.429 -142.769 -356.844 -38.9272 -286.466C110.589 -185.133 375.292 -156.496 379.991 23.5432C384.665 202.58 114.097 233.373 -22.3113 350.099C-139.046 449.989 -199.813 616 -350.246 648.412C-527.254 686.55 -751.176 675.125 -859.274 530.431C-964.919 389.02 -819.286 199.78 -817.07 23.5432C-814.912 -148.051 -964.666 -345.723 -846.683 -470.806C-728.908 -595.667 -517.925 -509.637 -350.246 -471.37Z" fill="#EF43FE"/>
</g>
</svg>
