<svg width="1551" height="320" viewBox="0 0 1551 320" fill="none" xmlns="http://www.w3.org/2000/svg">
<g clip-path="url(#clip0_65_192)">
<path d="M217.624 106.117V312.698H164.463V299.641C146.743 313.009 128.246 319.693 108.971 319.693C78.8158 319.693 53.1681 308.967 32.0282 287.516C10.8883 266.066 0.318359 239.952 0.318359 209.174C0.318359 178.708 10.8883 152.749 32.0282 131.299C53.1681 109.848 78.8158 99.1225 108.971 99.1225C128.246 99.1225 146.743 105.806 164.463 119.174V106.117H217.624ZM111.303 147.154C94.2044 147.154 80.3702 152.905 69.8002 164.408C59.2303 175.599 53.9453 190.522 53.9453 209.174C53.9453 227.516 59.0748 242.594 69.3339 254.408C79.9039 265.91 93.4272 271.661 109.904 271.661C126.381 271.661 139.748 265.91 150.007 254.408C160.267 242.594 165.396 227.516 165.396 209.174C165.396 191.143 160.267 176.376 150.007 164.874C140.059 153.06 127.158 147.154 111.303 147.154Z" fill="white"/>
<path d="M465.215 106.117L376.148 192.853L470.811 312.698H405.526L339.775 228.294L320.189 247.879V312.698H267.029V1.66138H320.189V179.796L395.267 106.117H465.215Z" fill="white"/>
<path d="M685.312 106.117V312.698H632.151V299.641C614.431 313.009 595.933 319.693 576.659 319.693C546.503 319.693 520.856 308.967 499.716 287.516C478.576 266.066 468.006 239.952 468.006 209.174C468.006 178.708 478.576 152.749 499.716 131.299C520.856 109.848 546.503 99.1225 576.659 99.1225C595.933 99.1225 614.431 105.806 632.151 119.174V106.117H685.312ZM578.99 147.154C561.892 147.154 548.058 152.905 537.488 164.408C526.918 175.599 521.633 190.522 521.633 209.174C521.633 227.516 526.762 242.594 537.021 254.408C547.591 265.91 561.115 271.661 577.591 271.661C594.068 271.661 607.436 265.91 617.695 254.408C627.954 242.594 633.083 227.516 633.083 209.174C633.083 191.143 627.954 176.376 617.695 164.874C607.747 153.06 594.845 147.154 578.99 147.154Z" fill="white"/>
<path d="M822.829 154.148H791.119V246.014C791.119 253.786 791.741 259.071 792.984 261.869C794.539 264.667 797.337 266.066 801.378 266.066C806.352 266.066 814.591 264.511 826.093 261.402V311.299C813.658 314.718 803.399 316.428 795.316 316.428C776.974 316.428 762.829 310.366 752.881 298.242C742.932 286.117 737.958 268.708 737.958 246.014V154.148H716.508V106.117H737.958V61.8168L791.119 40.8324V106.117H822.829V154.148Z" fill="white"/>
<path d="M1002.61 148.086L961.108 168.604C955.201 159.9 950.071 153.993 945.719 150.884C941.367 147.775 936.082 146.221 929.864 146.221C923.336 146.221 918.051 147.775 914.009 150.884C910.279 153.993 908.413 158.034 908.413 163.009C908.413 167.361 909.812 170.781 912.61 173.268C915.719 175.444 923.18 178.708 934.994 183.06L953.647 190.522C971.056 197.361 983.802 205.444 991.885 214.77C999.968 224.097 1004.01 235.444 1004.01 248.812C1004.01 268.708 996.548 285.496 981.626 299.174C966.704 312.853 948.362 319.693 926.6 319.693C888.051 319.693 861.16 298.242 845.926 255.34L889.294 238.086C895.823 251.143 901.73 260.003 907.014 264.667C912.299 269.33 918.983 271.661 927.066 271.661C934.216 271.661 939.968 269.796 944.32 266.066C948.672 262.024 950.849 256.739 950.849 250.211C950.849 245.858 949.139 242.439 945.719 239.952C942.61 237.465 935.615 234.045 924.735 229.692L903.75 221.765C872.973 210.262 857.584 191.143 857.584 164.408C857.584 145.755 864.424 130.211 878.103 117.775C892.092 105.34 909.502 99.1225 930.331 99.1225C946.496 99.1225 960.331 103.009 971.833 110.781C983.336 118.553 993.595 130.988 1002.61 148.086Z" fill="white"/>
<path d="M1217.94 312.698H1164.78V301.972C1149.86 313.786 1133.85 319.693 1116.75 319.693C1090.95 319.693 1069.65 310.522 1052.86 292.18C1037.63 276.014 1030.01 250.988 1030.01 217.102V106.117H1083.18V213.838C1083.18 222.231 1083.49 229.382 1084.11 235.288C1085.04 240.884 1086.59 246.791 1088.77 253.009C1091.26 259.226 1095.14 263.889 1100.43 266.998C1105.71 270.107 1112.55 271.661 1120.95 271.661C1130.58 271.661 1138.36 270.107 1144.26 266.998C1150.48 263.579 1154.99 258.76 1157.79 252.542C1160.58 246.014 1162.45 239.641 1163.38 233.423C1164.32 226.895 1164.78 218.812 1164.78 209.174V106.117H1217.94V312.698Z" fill="white"/>
<path d="M1465.46 106.117L1376.39 192.853L1471.06 312.698H1405.77L1340.02 228.294L1320.43 247.879V312.698H1267.27V1.66138H1320.43V179.796L1395.51 106.117H1465.46Z" fill="white"/>
<path d="M1492.24 106.117H1545.4V312.698H1492.24V106.117ZM1519.75 3.06035C1528.45 3.06035 1536.07 6.3246 1542.6 12.8531C1549.13 19.3816 1552.39 26.9982 1552.39 35.7028C1552.39 44.7184 1549.13 52.4904 1542.6 59.0189C1536.07 65.2365 1528.3 68.3453 1519.28 68.3453C1509.96 68.3453 1502.03 65.2365 1495.5 59.0189C1488.97 52.4904 1485.71 44.563 1485.71 35.2365C1485.71 26.221 1488.97 18.6044 1495.5 12.3868C1502.03 6.16916 1510.11 3.06035 1519.75 3.06035Z" fill="white"/>
</g>
<defs>
<clipPath id="clip0_65_192">
<rect width="1550.68" height="318.352" fill="white" transform="translate(0.318359 0.823975)"/>
</clipPath>
</defs>
</svg>
