<svg
  width="100%"
  height="100%"
  viewBox="0 0 315 64"
  fill="none"
  xmlns="http://www.w3.org/2000/svg"
>
  <path
    d="M44.1031 21.0205V62.5924H33.3139V59.9648C29.7175 62.6549 25.9634 64 22.0516 64C15.9314 64 10.7261 61.8416 6.43565 57.5249C2.14522 53.2082 0 47.9531 0 41.7595C0 35.6285 2.14522 30.4047 6.43565 26.088C10.7261 21.7713 15.9314 19.6129 22.0516 19.6129C25.9634 19.6129 29.7175 20.958 33.3139 23.6481V21.0205H44.1031ZM22.5248 29.2786C19.0546 29.2786 16.2469 30.436 14.1016 32.7507C11.9564 35.0029 10.8838 38.0059 10.8838 41.7595C10.8838 45.4506 11.9249 48.4848 14.007 50.8622C16.1522 53.1769 18.8968 54.3343 22.2408 54.3343C25.5848 54.3343 28.2979 53.1769 30.38 50.8622C32.4622 48.4848 33.5032 45.4506 33.5032 41.7595C33.5032 38.131 32.4622 35.1593 30.38 32.8446C28.361 30.4673 25.7426 29.2786 22.5248 29.2786Z"
    fill="white"
  />
  <path
    d="M94.3528 21.0205L76.2762 38.4751L95.4885 62.5924H82.2386L68.8941 45.607L64.9191 49.5484V62.5924H54.13V0H64.9191V35.8475L80.1565 21.0205H94.3528Z"
    fill="white"
  />
  <path
    d="M139.022 21.0205V62.5924H128.233V59.9648C124.637 62.6549 120.883 64 116.971 64C110.851 64 105.645 61.8416 101.355 57.5249C97.0643 53.2082 94.9191 47.9531 94.9191 41.7595C94.9191 35.6285 97.0643 30.4047 101.355 26.088C105.645 21.7713 110.851 19.6129 116.971 19.6129C120.883 19.6129 124.637 20.958 128.233 23.6481V21.0205H139.022ZM117.444 29.2786C113.974 29.2786 111.166 30.436 109.021 32.7507C106.876 35.0029 105.803 38.0059 105.803 41.7595C105.803 45.4506 106.844 48.4848 108.926 50.8622C111.071 53.1769 113.816 54.3343 117.16 54.3343C120.504 54.3343 123.217 53.1769 125.299 50.8622C127.381 48.4848 128.422 45.4506 128.422 41.7595C128.422 38.131 127.381 35.1593 125.299 32.8446C123.28 30.4673 120.662 29.2786 117.444 29.2786Z"
    fill="white"
  />
  <path
    d="M166.932 30.6862H160.496V49.173C160.496 50.737 160.623 51.8006 160.875 52.3636C161.19 52.9267 161.758 53.2082 162.578 53.2082C163.588 53.2082 165.26 52.8954 167.594 52.2698V62.3109C165.071 62.999 162.989 63.3431 161.348 63.3431C157.626 63.3431 154.755 62.1232 152.736 59.6833C150.717 57.2434 149.707 53.74 149.707 49.173V30.6862H145.354V21.0205H149.707V12.1056L160.496 7.8827V21.0205H166.932V30.6862Z"
    fill="white"
  />
  <path
    d="M203.419 29.4663L194.996 33.5953C193.797 31.8436 192.756 30.6549 191.873 30.0293C190.99 29.4037 189.917 29.0909 188.655 29.0909C187.33 29.0909 186.258 29.4037 185.437 30.0293C184.68 30.6549 184.302 31.4682 184.302 32.4692C184.302 33.3451 184.586 34.0332 185.153 34.5337C185.784 34.9717 187.299 35.6285 189.696 36.5044L193.482 38.0059C197.015 39.3822 199.602 41.0088 201.243 42.8856C202.883 44.7625 203.703 47.0459 203.703 49.7361C203.703 53.74 202.189 57.1183 199.16 59.871C196.132 62.6237 192.409 64 187.993 64C180.169 64 174.711 59.6833 171.62 51.0499L180.421 47.5777C181.746 50.2053 182.945 51.9883 184.018 52.9267C185.09 53.8651 186.447 54.3343 188.087 54.3343C189.539 54.3343 190.706 53.9589 191.589 53.2082C192.472 52.3949 192.914 51.3314 192.914 50.0176C192.914 49.1417 192.567 48.4536 191.873 47.9531C191.242 47.4526 189.822 46.7644 187.614 45.8886L183.355 44.2933C177.109 41.9785 173.986 38.131 173.986 32.7507C173.986 28.9971 175.374 25.869 178.15 23.3666C180.989 20.8641 184.523 19.6129 188.75 19.6129C192.031 19.6129 194.839 20.3949 197.173 21.9589C199.507 23.523 201.59 26.0254 203.419 29.4663Z"
    fill="white"
  />
  <path
    d="M247.122 62.5924H236.333V60.434C233.304 62.8113 230.055 64 226.585 64C221.348 64 217.026 62.1544 213.619 58.4633C210.527 55.2102 208.981 50.174 208.981 43.3548V21.0205H219.77V42.6979C219.77 44.3871 219.833 45.826 219.96 47.0147C220.149 48.1408 220.464 49.3294 220.906 50.5806C221.411 51.8319 222.199 52.7703 223.272 53.3959C224.345 54.0215 225.733 54.3343 227.436 54.3343C229.392 54.3343 230.97 54.0215 232.168 53.3959C233.43 52.7077 234.345 51.738 234.913 50.4868C235.481 49.173 235.859 47.8905 236.049 46.6393C236.238 45.3255 236.333 43.6989 236.333 41.7595V21.0205H247.122V62.5924Z"
    fill="white"
  />
  <path
    d="M297.357 21.0205L279.28 38.4751L298.492 62.5924H285.243L271.898 45.607L267.923 49.5484V62.5924H257.134V0H267.923V35.8475L283.16 21.0205H297.357Z"
    fill="white"
  />
  <path
    d="M302.791 21.0205H313.58V62.5924H302.791V21.0205ZM308.375 0.281527C310.142 0.281527 311.688 0.938419 313.013 2.2522C314.338 3.56598 315 5.09873 315 6.85044C315 8.66471 314.338 10.2287 313.013 11.5425C311.688 12.7937 310.11 13.4194 308.28 13.4194C306.388 13.4194 304.779 12.7937 303.454 11.5425C302.129 10.2287 301.466 8.63343 301.466 6.7566C301.466 4.94233 302.129 3.40958 303.454 2.15836C304.779 0.907137 306.419 0.281527 308.375 0.281527Z"
    fill="white"
  />
</svg>
